<mxfile host="app.diagrams.net" modified="2022-11-05T13:18:12.089Z" agent="5.0 (Windows NT 10.0; Win64; x64) AppleWebKit/537.36 (KHTML, like Gecko) Chrome/107.0.0.0 Safari/537.36" etag="TPar_HVkeHAKcFAw57xx" version="20.5.2" type="github">
  <diagram id="jSq8YboeQ8LMeiUTRVl8" name="Page-1">
    <mxGraphModel dx="1238" dy="724" grid="1" gridSize="10" guides="1" tooltips="1" connect="1" arrows="1" fold="1" page="1" pageScale="1" pageWidth="850" pageHeight="1100" math="0" shadow="0">
      <root>
        <mxCell id="0" />
        <mxCell id="1" parent="0" />
        <mxCell id="NhqcHmSL0X8ifgXbSVVC-19" value="" style="group" vertex="1" connectable="0" parent="1">
          <mxGeometry x="50" y="70" width="670" height="570" as="geometry" />
        </mxCell>
        <mxCell id="NhqcHmSL0X8ifgXbSVVC-1" value="" style="whiteSpace=wrap;html=1;aspect=fixed;" vertex="1" parent="NhqcHmSL0X8ifgXbSVVC-19">
          <mxGeometry x="100" width="570" height="570" as="geometry" />
        </mxCell>
        <mxCell id="NhqcHmSL0X8ifgXbSVVC-2" value="Driverless car" style="text;html=1;strokeColor=none;fillColor=none;align=center;verticalAlign=middle;whiteSpace=wrap;rounded=0;" vertex="1" parent="NhqcHmSL0X8ifgXbSVVC-19">
          <mxGeometry x="335" width="100" height="30" as="geometry" />
        </mxCell>
        <mxCell id="NhqcHmSL0X8ifgXbSVVC-3" value="Manage Car" style="ellipse;whiteSpace=wrap;html=1;" vertex="1" parent="NhqcHmSL0X8ifgXbSVVC-19">
          <mxGeometry x="140" y="220" width="120" height="80" as="geometry" />
        </mxCell>
        <mxCell id="NhqcHmSL0X8ifgXbSVVC-4" value="Detect obstacles" style="ellipse;whiteSpace=wrap;html=1;" vertex="1" parent="NhqcHmSL0X8ifgXbSVVC-19">
          <mxGeometry x="460" y="30" width="120" height="80" as="geometry" />
        </mxCell>
        <mxCell id="NhqcHmSL0X8ifgXbSVVC-5" value="V2V/communication&lt;br&gt;with other vehicles" style="ellipse;whiteSpace=wrap;html=1;" vertex="1" parent="NhqcHmSL0X8ifgXbSVVC-19">
          <mxGeometry x="460" y="210" width="120" height="80" as="geometry" />
        </mxCell>
        <mxCell id="NhqcHmSL0X8ifgXbSVVC-6" value="Detect traffic signs" style="ellipse;whiteSpace=wrap;html=1;" vertex="1" parent="NhqcHmSL0X8ifgXbSVVC-19">
          <mxGeometry x="460" y="120" width="120" height="80" as="geometry" />
        </mxCell>
        <mxCell id="NhqcHmSL0X8ifgXbSVVC-7" value="Stop" style="ellipse;whiteSpace=wrap;html=1;" vertex="1" parent="NhqcHmSL0X8ifgXbSVVC-19">
          <mxGeometry x="460" y="480" width="120" height="80" as="geometry" />
        </mxCell>
        <mxCell id="NhqcHmSL0X8ifgXbSVVC-8" value="Accelerate" style="ellipse;whiteSpace=wrap;html=1;" vertex="1" parent="NhqcHmSL0X8ifgXbSVVC-19">
          <mxGeometry x="460" y="390" width="120" height="80" as="geometry" />
        </mxCell>
        <mxCell id="NhqcHmSL0X8ifgXbSVVC-9" value="Reduce speed" style="ellipse;whiteSpace=wrap;html=1;" vertex="1" parent="NhqcHmSL0X8ifgXbSVVC-19">
          <mxGeometry x="460" y="300" width="120" height="80" as="geometry" />
        </mxCell>
        <mxCell id="NhqcHmSL0X8ifgXbSVVC-10" value="&amp;lt;&amp;lt;include&amp;gt;&amp;gt;" style="endArrow=open;endSize=12;dashed=1;html=1;rounded=0;entryX=0;entryY=0.5;entryDx=0;entryDy=0;strokeWidth=1;align=center;textDirection=ltr;" edge="1" parent="NhqcHmSL0X8ifgXbSVVC-19" target="NhqcHmSL0X8ifgXbSVVC-4">
          <mxGeometry x="0.0347" y="2" width="160" relative="1" as="geometry">
            <mxPoint x="260" y="250" as="sourcePoint" />
            <mxPoint x="400" y="280" as="targetPoint" />
            <mxPoint as="offset" />
          </mxGeometry>
        </mxCell>
        <mxCell id="NhqcHmSL0X8ifgXbSVVC-11" value="&#xa;&lt;span style=&quot;color: rgb(0, 0, 0); font-family: Helvetica; font-size: 11px; font-style: normal; font-variant-ligatures: normal; font-variant-caps: normal; font-weight: 400; letter-spacing: normal; orphans: 2; text-align: center; text-indent: 0px; text-transform: none; widows: 2; word-spacing: 0px; -webkit-text-stroke-width: 0px; background-color: rgb(255, 255, 255); text-decoration-thickness: initial; text-decoration-style: initial; text-decoration-color: initial; float: none; display: inline !important;&quot;&gt;&amp;lt;&amp;lt;extend&amp;gt;&amp;gt;&lt;/span&gt;&#xa;&#xa;" style="endArrow=open;endSize=12;dashed=1;html=1;rounded=0;strokeWidth=1;exitX=0;exitY=0.5;exitDx=0;exitDy=0;entryX=0.952;entryY=0.761;entryDx=0;entryDy=0;entryPerimeter=0;" edge="1" parent="NhqcHmSL0X8ifgXbSVVC-19" source="NhqcHmSL0X8ifgXbSVVC-7" target="NhqcHmSL0X8ifgXbSVVC-3">
          <mxGeometry x="0.0239" y="-3" width="160" relative="1" as="geometry">
            <mxPoint x="260" y="250" as="sourcePoint" />
            <mxPoint x="250" y="270" as="targetPoint" />
            <mxPoint as="offset" />
          </mxGeometry>
        </mxCell>
        <mxCell id="NhqcHmSL0X8ifgXbSVVC-12" value="&#xa;&lt;span style=&quot;color: rgb(0, 0, 0); font-family: Helvetica; font-size: 11px; font-style: normal; font-variant-ligatures: normal; font-variant-caps: normal; font-weight: 400; letter-spacing: normal; orphans: 2; text-align: center; text-indent: 0px; text-transform: none; widows: 2; word-spacing: 0px; -webkit-text-stroke-width: 0px; background-color: rgb(255, 255, 255); text-decoration-thickness: initial; text-decoration-style: initial; text-decoration-color: initial; float: none; display: inline !important;&quot;&gt;&amp;lt;&amp;lt;extend&amp;gt;&amp;gt;&lt;/span&gt;&#xa;&#xa;" style="endArrow=open;endSize=12;dashed=1;html=1;rounded=0;strokeWidth=1;exitX=0;exitY=0.5;exitDx=0;exitDy=0;" edge="1" parent="NhqcHmSL0X8ifgXbSVVC-19" source="NhqcHmSL0X8ifgXbSVVC-8">
          <mxGeometry width="160" relative="1" as="geometry">
            <mxPoint x="260" y="250" as="sourcePoint" />
            <mxPoint x="260" y="270" as="targetPoint" />
            <mxPoint as="offset" />
          </mxGeometry>
        </mxCell>
        <mxCell id="NhqcHmSL0X8ifgXbSVVC-13" value="&amp;lt;&amp;lt;extend&amp;gt;&amp;gt;" style="endArrow=open;endSize=12;dashed=1;html=1;rounded=0;strokeWidth=1;exitX=0;exitY=0.5;exitDx=0;exitDy=0;entryX=1;entryY=0.5;entryDx=0;entryDy=0;" edge="1" parent="NhqcHmSL0X8ifgXbSVVC-19" source="NhqcHmSL0X8ifgXbSVVC-9" target="NhqcHmSL0X8ifgXbSVVC-3">
          <mxGeometry x="-0.018" y="4" width="160" relative="1" as="geometry">
            <mxPoint x="260" y="249.57999999999998" as="sourcePoint" />
            <mxPoint x="420" y="249.57999999999998" as="targetPoint" />
            <mxPoint as="offset" />
          </mxGeometry>
        </mxCell>
        <mxCell id="NhqcHmSL0X8ifgXbSVVC-14" value="&#xa;&lt;span style=&quot;color: rgb(0, 0, 0); font-family: Helvetica; font-size: 11px; font-style: normal; font-variant-ligatures: normal; font-variant-caps: normal; font-weight: 400; letter-spacing: normal; orphans: 2; text-indent: 0px; text-transform: none; widows: 2; word-spacing: 0px; -webkit-text-stroke-width: 0px; background-color: rgb(255, 255, 255); text-decoration-thickness: initial; text-decoration-style: initial; text-decoration-color: initial; float: none; display: inline !important;&quot;&gt;&amp;lt;&amp;lt;include&amp;gt;&amp;gt;&lt;/span&gt;&#xa;&#xa;" style="endArrow=open;endSize=12;dashed=1;html=1;rounded=0;strokeWidth=1;entryX=0;entryY=0.5;entryDx=0;entryDy=0;verticalAlign=middle;align=center;horizontal=1;" edge="1" parent="NhqcHmSL0X8ifgXbSVVC-19" target="NhqcHmSL0X8ifgXbSVVC-5">
          <mxGeometry width="160" relative="1" as="geometry">
            <mxPoint x="260" y="249.57999999999998" as="sourcePoint" />
            <mxPoint x="420" y="249.57999999999998" as="targetPoint" />
            <mxPoint as="offset" />
          </mxGeometry>
        </mxCell>
        <mxCell id="NhqcHmSL0X8ifgXbSVVC-15" value="&#xa;&lt;span style=&quot;color: rgb(0, 0, 0); font-family: Helvetica; font-size: 11px; font-style: normal; font-variant-ligatures: normal; font-variant-caps: normal; font-weight: 400; letter-spacing: normal; orphans: 2; text-align: center; text-indent: 0px; text-transform: none; widows: 2; word-spacing: 0px; -webkit-text-stroke-width: 0px; background-color: rgb(255, 255, 255); text-decoration-thickness: initial; text-decoration-style: initial; text-decoration-color: initial; float: none; display: inline !important;&quot;&gt;&amp;lt;&amp;lt;include&amp;gt;&amp;gt;&lt;/span&gt;&#xa;&#xa;" style="endArrow=open;endSize=12;dashed=1;html=1;rounded=0;strokeWidth=1;entryX=0;entryY=0.5;entryDx=0;entryDy=0;" edge="1" parent="NhqcHmSL0X8ifgXbSVVC-19" target="NhqcHmSL0X8ifgXbSVVC-6">
          <mxGeometry x="-0.0194" y="-5" width="160" relative="1" as="geometry">
            <mxPoint x="260" y="249.57999999999998" as="sourcePoint" />
            <mxPoint x="420" y="249.57999999999998" as="targetPoint" />
            <mxPoint as="offset" />
          </mxGeometry>
        </mxCell>
        <mxCell id="NhqcHmSL0X8ifgXbSVVC-17" value="Actor" style="shape=umlActor;verticalLabelPosition=bottom;verticalAlign=top;html=1;" vertex="1" parent="NhqcHmSL0X8ifgXbSVVC-19">
          <mxGeometry y="230" width="30" height="60" as="geometry" />
        </mxCell>
        <mxCell id="NhqcHmSL0X8ifgXbSVVC-20" value="Obstacle" style="shape=umlActor;verticalLabelPosition=bottom;verticalAlign=top;html=1;labelPosition=center;align=center;" vertex="1" parent="1">
          <mxGeometry x="790" y="110" width="30" height="60" as="geometry" />
        </mxCell>
        <mxCell id="NhqcHmSL0X8ifgXbSVVC-21" value="Traffic Management Authority" style="shape=umlActor;verticalLabelPosition=bottom;verticalAlign=top;html=1;" vertex="1" parent="1">
          <mxGeometry x="790" y="200" width="30" height="60" as="geometry" />
        </mxCell>
        <mxCell id="NhqcHmSL0X8ifgXbSVVC-22" value="Other vehicles" style="shape=umlActor;verticalLabelPosition=bottom;verticalAlign=top;html=1;" vertex="1" parent="1">
          <mxGeometry x="790" y="290" width="30" height="60" as="geometry" />
        </mxCell>
        <mxCell id="NhqcHmSL0X8ifgXbSVVC-32" value="" style="endArrow=none;html=1;rounded=0;strokeWidth=1;exitX=0.5;exitY=0.5;exitDx=0;exitDy=0;exitPerimeter=0;" edge="1" parent="1" source="NhqcHmSL0X8ifgXbSVVC-17">
          <mxGeometry width="50" height="50" relative="1" as="geometry">
            <mxPoint x="290" y="370" as="sourcePoint" />
            <mxPoint x="190" y="330" as="targetPoint" />
          </mxGeometry>
        </mxCell>
        <mxCell id="NhqcHmSL0X8ifgXbSVVC-33" value="" style="endArrow=none;html=1;rounded=0;strokeWidth=1;entryX=0.5;entryY=0.5;entryDx=0;entryDy=0;entryPerimeter=0;exitX=1;exitY=0.5;exitDx=0;exitDy=0;" edge="1" parent="1" source="NhqcHmSL0X8ifgXbSVVC-4" target="NhqcHmSL0X8ifgXbSVVC-20">
          <mxGeometry width="50" height="50" relative="1" as="geometry">
            <mxPoint x="290" y="370" as="sourcePoint" />
            <mxPoint x="340" y="320" as="targetPoint" />
          </mxGeometry>
        </mxCell>
        <mxCell id="NhqcHmSL0X8ifgXbSVVC-34" value="" style="endArrow=none;html=1;rounded=0;strokeWidth=1;exitX=0.5;exitY=0.5;exitDx=0;exitDy=0;exitPerimeter=0;entryX=1;entryY=0.5;entryDx=0;entryDy=0;" edge="1" parent="1" source="NhqcHmSL0X8ifgXbSVVC-22" target="NhqcHmSL0X8ifgXbSVVC-5">
          <mxGeometry width="50" height="50" relative="1" as="geometry">
            <mxPoint x="290" y="370" as="sourcePoint" />
            <mxPoint x="340" y="320" as="targetPoint" />
          </mxGeometry>
        </mxCell>
        <mxCell id="NhqcHmSL0X8ifgXbSVVC-35" value="" style="endArrow=none;html=1;rounded=0;strokeWidth=1;entryX=0.5;entryY=0.5;entryDx=0;entryDy=0;entryPerimeter=0;exitX=1;exitY=0.5;exitDx=0;exitDy=0;" edge="1" parent="1" source="NhqcHmSL0X8ifgXbSVVC-6" target="NhqcHmSL0X8ifgXbSVVC-21">
          <mxGeometry width="50" height="50" relative="1" as="geometry">
            <mxPoint x="290" y="370" as="sourcePoint" />
            <mxPoint x="340" y="320" as="targetPoint" />
          </mxGeometry>
        </mxCell>
      </root>
    </mxGraphModel>
  </diagram>
</mxfile>
